v 0.000000 10.000000 0.000000
v 0.000000 0.000000 10.000000
v 0.000000 10.000000 10.000000
v 0.000000 0.000000 0.000000
v 10.000000 0.000000 10.000000
v 10.000000 10.000000 0.000000
v 10.000000 10.000000 10.000000
v 10.000000 0.000000 0.000000
vn -1.000000 0.000000 0.000000
vn -1.000000 0.000000 0.000000
vn 1.000000 -0.000000 0.000000
vn 1.000000 0.000000 0.000000
vn 0.000000 -1.000000 0.000000
vn 0.000000 -1.000000 0.000000
vn 0.000000 1.000000 0.000000
vn 0.000000 1.000000 0.000000
vn 0.000000 0.000000 -1.000000
vn 0.000000 0.000000 -1.000000
vn 0.000000 0.000000 1.000000
vn 0.000000 0.000000 1.000000
f 1//1 2//1 3//1
f 4//2 2//2 1//2
f 5//3 6//3 7//3
f 5//4 8//4 6//4
f 8//5 5//5 4//5
f 4//6 5//6 2//6
f 7//7 6//7 1//7
f 7//8 1//8 3//8
f 1//9 6//9 4//9
f 4//10 6//10 8//10
f 7//11 3//11 2//11
f 7//12 2//12 5//12

